<?xml version="1.0" encoding="UTF-8" standalone="no"?>
<svg width="157px" height="44px" viewBox="0 0 157 44" version="1.1" xmlns="http://www.w3.org/2000/svg" xmlns:xlink="http://www.w3.org/1999/xlink" xmlns:sketch="http://www.bohemiancoding.com/sketch/ns">
    <!-- Generator: Sketch 3.3 (11970) - http://www.bohemiancoding.com/sketch -->
    <title>logo copy</title>
    <desc>Created with Sketch.</desc>
    <defs></defs>
    <g id="Page-1" stroke="none" stroke-width="1" fill="none" fill-rule="evenodd" sketch:type="MSPage">
        <g id="logo-copy" sketch:type="MSArtboardGroup">
            <g id="logo" sketch:type="MSLayerGroup" transform="translate(1.000000, 6.000000)">
                <path d="M16,32 C24.836556,32 32,24.836556 32,16 C32,7.163444 24.836556,0 16,0 C7.163444,0 0,7.163444 0,16 C0,24.836556 7.163444,32 16,32 Z" id="Oval-1" stroke="#E55A54" stroke-width="1.52380952" sketch:type="MSShapeGroup"></path>
                <g id="Path-1-Copy-2" transform="translate(10.000000, 4.476190)" stroke="#E55A54" stroke-width="2.28571429" sketch:type="MSShapeGroup">
                    <path d="M2.69937724,27.1714384 C2.69937724,27.1714384 2.69937733,26.1363633 2.69937733,22.4634247 C2.69937724,19.8381051 6.84336714e-17,18.5011014 0,14.4945293 C6.94663274e-17,10.4274984 3.12848526,9.48895284 3.12848526,6.04761905 C3.12848527,5.17143827 3.12848527,0.171438399 3.12848527,0.171438399 L6.08032962,0.171438399" id="Path-1"></path>
                </g>
                <g id="Path-1-Copy" transform="translate(18.404762, 18.476190) scale(-1, 1) translate(-18.404762, -18.476190) translate(14.904762, 4.476190)" stroke="#E55A54" stroke-width="2.28571429" sketch:type="MSShapeGroup">
                    <path d="M2.69937724,27.1714384 C2.69937724,27.1714384 2.69937733,26.1363633 2.69937733,22.4634247 C2.69937724,19.8381051 6.84336714e-17,18.5011014 0,14.4945293 C6.94663274e-17,10.4274984 3.12848526,9.48895284 3.12848526,6.04761905 C3.12848527,5.17143827 3.12848527,0.171438399 3.12848527,0.171438399 L6.08032962,0.171438399" id="Path-1"></path>
                </g>
                <path d="M17.8333333,21.2380952 C18.8458554,21.2380952 19.6666667,20.4172839 19.6666667,19.4047619 C19.6666667,18.3922399 18.8458554,17.5714286 17.8333333,17.5714286 C16.8208113,17.5714286 16,18.3922399 16,19.4047619 C16,20.4172839 16.8208113,21.2380952 17.8333333,21.2380952 Z" id="Oval-2-Copy" fill="#E55A54" sketch:type="MSShapeGroup"></path>
            </g>
            <path d="M49.9214112,17.0104302 L49.9214112,18.2151239 L53.7705596,18.2151239 L53.7705596,20.6792699 L49.9214112,20.6792699 L49.9214112,32.7809648 L46.8420925,32.7809648 L46.8420925,20.6792699 L45,20.6792699 L45,18.2151239 L46.8420925,18.2151239 L46.8420925,17.0925684 C46.8420925,15.5593144 47.3049021,14.3409432 48.2305353,13.4374185 C49.1561685,12.5338938 50.2742432,12.0821382 51.5847932,12.0821382 C52.8953431,12.0821382 54.0913166,12.5658361 55.1727494,13.5332464 L53.9080292,15.696219 C53.30316,15.0573632 52.6708062,14.73794 52.0109489,14.73794 C51.3510916,14.73794 50.8378769,14.9432835 50.4712895,15.3539765 C50.1047021,15.7646696 49.9214112,16.3168153 49.9214112,17.0104302 L49.9214112,17.0104302 Z M59.8192214,32.7809648 L56.7399027,32.7809648 L56.7399027,12.4654498 L59.8192214,12.4654498 L59.8192214,32.7809648 Z M74.5009732,26.1003911 L74.5009732,18.2151239 L77.580292,18.2151239 L77.580292,32.7809648 L74.5009732,32.7809648 L74.5009732,30.125163 C74.0060803,31.0195612 73.3233215,31.7222921 72.4526764,32.2333768 C71.5820313,32.7444615 70.6426652,33 69.6345499,33 C67.9849066,33 66.6514649,32.4980493 65.6341849,31.494133 C64.6169049,30.4902166 64.1082725,29.0391229 64.1082725,27.1408083 L64.1082725,18.2151239 L67.1875912,18.2151239 L67.1875912,26.2099087 C67.1875912,28.8931034 68.305666,30.2346806 70.5418491,30.2346806 C71.6049526,30.2346806 72.5305719,29.8833151 73.3187348,29.1805737 C74.1068977,28.4778322 74.5009732,27.451115 74.5009732,26.1003911 L74.5009732,26.1003911 Z M85.8284672,20.6792699 L85.8284672,28.071708 C85.8284672,28.7653229 86.0117581,29.3174686 86.3783455,29.7281617 C86.7449329,30.1388547 87.2581476,30.3441982 87.9180049,30.3441982 C88.5778622,30.3441982 89.210216,30.024775 89.8150852,29.3859192 L91.0798054,31.5488918 C89.9983725,32.5163021 88.8023991,33 87.4918491,33 C86.1812992,33 85.0632244,32.5482444 84.1375912,31.6447197 C83.2119581,30.741195 82.7491484,29.5228238 82.7491484,27.9895698 L82.7491484,20.6792699 L80.907056,20.6792699 L80.907056,18.2151239 L82.7491484,18.2151239 L82.7491484,13.642764 L85.8284672,13.642764 L85.8284672,18.2151239 L89.6776156,18.2151239 L89.6776156,20.6792699 L85.8284672,20.6792699 Z M107.136253,26.8396349 L95.6712895,26.8396349 C95.744607,27.8983104 96.230328,28.7516265 97.1284672,29.3996089 C98.0266063,30.0475912 99.0530356,30.3715776 100.207786,30.3715776 C102.040723,30.3715776 103.433734,29.7966159 104.386861,28.6466754 L106.146472,30.5632334 C104.570146,32.1877526 102.517288,33 99.9878345,33 C97.9349451,33 96.1890988,32.320085 94.7502433,30.9602347 C93.3113878,29.6003843 92.5919708,27.7751092 92.5919708,25.4843546 C92.5919708,23.1936 93.3251346,21.3728881 94.7914842,20.0221643 C96.2578338,18.6714404 97.985351,17.9960887 99.9740876,17.9960887 C101.962824,17.9960887 103.653683,18.5938663 105.046715,19.7894394 C106.439747,20.9850125 107.136253,22.6323233 107.136253,24.7314211 L107.136253,26.8396349 Z M95.6712895,24.4302477 L104.056934,24.4302477 C104.056934,23.2072951 103.672023,22.2672784 102.90219,21.6101695 C102.132356,20.9530606 101.183826,20.6245111 100.056569,20.6245111 C98.9293131,20.6245111 97.9166306,20.9667502 97.0184915,21.6512386 C96.1203524,22.335727 95.6712895,23.2620541 95.6712895,24.4302477 L95.6712895,24.4302477 Z M114.20219,17.0104302 L114.20219,18.2151239 L118.051338,18.2151239 L118.051338,20.6792699 L114.20219,20.6792699 L114.20219,32.7809648 L111.122871,32.7809648 L111.122871,20.6792699 L109.280779,20.6792699 L109.280779,18.2151239 L111.122871,18.2151239 L111.122871,17.0925684 C111.122871,15.5593144 111.585681,14.3409432 112.511314,13.4374185 C113.436947,12.5338938 114.555022,12.0821382 115.865572,12.0821382 C117.176122,12.0821382 118.372095,12.5658361 119.453528,13.5332464 L118.188808,15.696219 C117.583939,15.0573632 116.951585,14.73794 116.291727,14.73794 C115.63187,14.73794 115.118656,14.9432835 114.752068,15.3539765 C114.385481,15.7646696 114.20219,16.3168153 114.20219,17.0104302 L114.20219,17.0104302 Z M124.1,32.7809648 L121.020681,32.7809648 L121.020681,18.2151239 L124.1,18.2151239 L124.1,32.7809648 Z M120.635766,13.9439374 C120.635766,13.4145997 120.828222,12.9582809 121.213139,12.5749674 C121.598055,12.1916539 122.056283,12 122.587835,12 C123.119386,12 123.577614,12.1916539 123.96253,12.5749674 C124.347447,12.9582809 124.539903,13.4145997 124.539903,13.9439374 C124.539903,14.4732751 124.347447,14.9295939 123.96253,15.3129074 C123.577614,15.696221 123.119386,15.8878748 122.587835,15.8878748 C122.056283,15.8878748 121.598055,15.696221 121.213139,15.3129074 C120.828222,14.9295939 120.635766,14.4732751 120.635766,13.9439374 L120.635766,13.9439374 Z M137.462044,31.7542373 C136.453928,32.5847499 135.161727,33 133.585401,33 C132.522298,33 131.41797,32.8083461 130.272384,32.4250326 C129.126799,32.0417191 128.114116,31.5032629 127.234307,30.809648 L128.718978,28.4276402 C130.423609,29.7053519 132.073228,30.3441982 133.667883,30.3441982 C134.364399,30.3441982 134.914272,30.1844866 135.317518,29.8650587 C135.720764,29.5456307 135.922384,29.139507 135.922384,28.6466754 C135.922384,27.9165544 134.950942,27.2594553 133.008029,26.6753585 C132.861394,26.6205995 132.75142,26.584094 132.678102,26.5658409 C129.635427,25.7444548 128.114112,24.3754985 128.114112,22.4589309 C128.114112,21.1082071 128.641073,20.0267316 129.695012,19.214472 C130.748951,18.4022124 132.119051,17.9960887 133.805353,17.9960887 C135.491655,17.9960887 137.086286,18.4889129 138.589294,19.4745763 L137.43455,21.7470665 C136.243141,20.9621864 134.95094,20.5697523 133.557908,20.5697523 C132.824733,20.5697523 132.229037,20.7020847 131.770803,20.9667536 C131.312569,21.2314224 131.083455,21.6284198 131.083455,22.1577575 C131.083455,22.6323361 131.321733,22.9791384 131.798297,23.1981747 C132.128225,23.3624519 132.591035,23.5176003 133.18674,23.6636245 C133.782444,23.8096487 134.309406,23.9556707 134.76764,24.1016949 C135.225874,24.2477191 135.670355,24.4119939 136.101095,24.5945241 C136.531835,24.7770544 136.994645,25.0325929 137.489538,25.3611473 C138.479324,26.0182562 138.974209,27.0404103 138.974209,28.4276402 C138.974209,29.81487 138.470159,30.9237247 137.462044,31.7542373 L137.462044,31.7542373 Z M145.545255,24.8956975 L145.545255,32.7809648 L142.465937,32.7809648 L142.465937,12.4928292 L145.545255,12.4928292 L145.545255,20.8709257 C145.98516,19.9765275 146.64959,19.2737966 147.538564,18.7627119 C148.427539,18.2516272 149.385234,17.9960887 150.411679,17.9960887 C152.061322,17.9960887 153.394764,18.4980393 154.412044,19.5019557 C155.429324,20.505872 155.937956,21.9569657 155.937956,23.8552803 L155.937956,32.7809648 L152.858637,32.7809648 L152.858637,24.7861799 C152.858637,22.1029853 151.740563,20.7614081 149.50438,20.7614081 C148.441276,20.7614081 147.515657,21.1127735 146.727494,21.815515 C145.939331,22.5182564 145.545255,23.5449737 145.545255,24.8956975 L145.545255,24.8956975 Z" id="flutefish-copy" fill="#E55A54" sketch:type="MSShapeGroup"></path>
        </g>
    </g>
</svg>